# xmcd CD database file generated by OrangeCD 5.2
#
# Track frame offsets:
#	150
#	14720
#	38105
#	45091
#	56749
#	65972
#	72897
#	85339
#	100422
#	119281
#	129332
#	144155
#	160432
#	173045
#	186480
#
# Disc length: 2669 seconds
#
# Revision: 0
# Processed by: cddbd v1.5.1PL0 Copyright (c) Steve Scherf et al.
# Submitted via: OrangeCD 5.2
#
DISCID=d60a6b0f
DTITLE=Johnny Cash - Live At Manchester Disc 1
DYEAR=1900
DGENRE=Country
TTITLE0=A Boy Named Sue
TTITLE1=Johnny Cash and June Carter Cash - Another Man Done Gone/Goin' To Memphis
TTITLE2=Five Feet High And Rising
TTITLE3=That Silver Haired Daddy Of Mine
TTITLE4=Hey Porter
TTITLE5=I Walk The Line
TTITLE6=Johnny Cash and June Carter Cash - Jackson
TTITLE7=Johnny Cash and June Carter Cash - If I Were A Carpenter
TTITLE8=June Carter Cash - Follow Me
TTITLE9=Help Me
TTITLE10=The Last Supper
TTITLE11=Johnny Cash and June Carter Cash - Allegheny
TTITLE12=Johnny Cash and June Carter Cash - Will The Circle Be Unbroken
TTITLE13=Daddy Sang Bass
TTITLE14=A Thing Called Love
EXTD=
EXTT0=
EXTT1=
EXTT2=
EXTT3=
EXTT4=
EXTT5=
EXTT6=
EXTT7=
EXTT8=
EXTT9=
EXTT10=
EXTT11=
EXTT12=
EXTT13=
EXTT14=
PLAYORDER=
